<svg xmlns="http://www.w3.org/2000/svg" xmlns:xlink="http://www.w3.org/1999/xlink" width="133" zoomAndPan="magnify" viewBox="0 0 99.75 33.749998" height="45" preserveAspectRatio="xMidYMid meet" version="1.0"><defs><g/><clipPath id="dbaa2bc552"><path d="M 10 3.351562 L 30.734375 3.351562 L 30.734375 25.683594 L 10 25.683594 Z M 10 3.351562 " clip-rule="nonzero"/></clipPath><clipPath id="fc07471aba"><path d="M 9.890625 3.351562 L 30.734375 3.351562 L 30.734375 25.683594 L 9.890625 25.683594 Z M 9.890625 3.351562 " clip-rule="nonzero"/></clipPath><clipPath id="cd0b00bfe0"><path d="M 3.59375 6 L 29.648438 6 L 29.648438 30.4375 L 3.59375 30.4375 Z M 3.59375 6 " clip-rule="nonzero"/></clipPath><clipPath id="b9bc730534"><path d="M 28 12 L 29.648438 12 L 29.648438 14 L 28 14 Z M 28 12 " clip-rule="nonzero"/></clipPath><clipPath id="e6bc0770e7"><path d="M 29 12 L 29.648438 12 L 29.648438 13 L 29 13 Z M 29 12 " clip-rule="nonzero"/></clipPath><clipPath id="9b826ab3d5"><path d="M 28 12 L 29.648438 12 L 29.648438 13 L 28 13 Z M 28 12 " clip-rule="nonzero"/></clipPath><clipPath id="647b255174"><path d="M 28 11 L 29.648438 11 L 29.648438 13 L 28 13 Z M 28 11 " clip-rule="nonzero"/></clipPath><clipPath id="5c4d49bfc9"><path d="M 3.59375 25 L 5 25 L 5 30.4375 L 3.59375 30.4375 Z M 3.59375 25 " clip-rule="nonzero"/></clipPath></defs><g clip-path="url(#dbaa2bc552)"><path fill="#060606" d="M 19.472656 3.898438 L 11.265625 7.785156 C 10.597656 8.109375 10.171875 8.785156 10.171875 9.535156 L 10.179688 19.515625 C 10.179688 20.253906 10.609375 20.941406 11.285156 21.253906 L 19.484375 25.152344 C 20.003906 25.402344 20.617188 25.402344 21.140625 25.152344 L 29.347656 21.253906 C 30.023438 20.933594 30.453125 20.253906 30.453125 19.503906 L 30.453125 9.523438 C 30.453125 8.773438 30.023438 8.097656 29.347656 7.785156 L 21.128906 3.898438 C 20.609375 3.648438 20.003906 3.648438 19.472656 3.898438 Z M 19.472656 3.898438 " fill-opacity="1" fill-rule="nonzero"/></g><g clip-path="url(#fc07471aba)"><path fill="#f67a45" d="M 20.304688 25.621094 C 19.984375 25.621094 19.660156 25.546875 19.359375 25.402344 L 11.160156 21.503906 C 10.398438 21.140625 9.898438 20.359375 9.898438 19.515625 L 9.890625 9.535156 C 9.890625 8.679688 10.378906 7.898438 11.148438 7.535156 L 19.359375 3.648438 C 19.960938 3.367188 20.648438 3.367188 21.253906 3.648438 L 29.460938 7.546875 C 30.234375 7.910156 30.722656 8.691406 30.722656 9.535156 L 30.722656 19.515625 C 30.722656 20.359375 30.222656 21.152344 29.460938 21.515625 L 21.253906 25.410156 C 20.953125 25.546875 20.628906 25.621094 20.304688 25.621094 Z M 19.597656 4.148438 L 11.390625 8.035156 C 10.816406 8.304688 10.441406 8.898438 10.441406 9.535156 L 10.453125 19.515625 C 10.453125 20.152344 10.828125 20.734375 11.398438 21.003906 L 19.597656 24.902344 C 20.046875 25.121094 20.566406 25.121094 21.015625 24.902344 L 29.222656 21.003906 C 29.796875 20.734375 30.171875 20.152344 30.171875 19.515625 L 30.171875 9.535156 C 30.171875 8.898438 29.796875 8.316406 29.222656 8.046875 L 21.015625 4.148438 C 20.566406 3.929688 20.046875 3.929688 19.597656 4.148438 Z M 19.597656 4.148438 " fill-opacity="1" fill-rule="nonzero"/></g><g clip-path="url(#cd0b00bfe0)"><path fill="#f67a45" d="M 20.929688 8.890625 C 20.625 8.859375 20.367188 8.660156 20.085938 8.535156 C 19.726562 8.378906 19.324219 8.355469 18.941406 8.257812 C 18.6875 8.195312 18.441406 8.097656 18.195312 8.015625 C 17.378906 7.738281 16.527344 7.570312 15.667969 7.519531 C 15.585938 7.515625 15.496094 7.511719 15.417969 7.539062 C 15.261719 7.585938 15.152344 7.726562 15.054688 7.855469 C 14.226562 8.925781 13.007812 9.71875 12.414062 10.945312 C 12.355469 11.066406 12.234375 11.140625 12.148438 11.246094 C 12.09375 11.304688 12.0625 11.378906 12.023438 11.449219 C 11.941406 11.597656 11.847656 11.738281 11.734375 11.871094 C 11.707031 11.902344 11.675781 11.933594 11.660156 11.972656 C 11.644531 12.015625 11.644531 12.0625 11.671875 12.097656 C 11.699219 12.128906 11.746094 12.140625 11.773438 12.175781 C 11.8125 12.226562 11.78125 12.3125 11.828125 12.363281 C 11.878906 12.417969 11.984375 12.386719 12.027344 12.445312 C 12.058594 12.492188 12.035156 12.558594 12.0625 12.609375 C 12.101562 12.671875 12.203125 12.652344 12.261719 12.699219 C 12.320312 12.742188 12.324219 12.839844 12.390625 12.871094 C 12.441406 12.902344 12.507812 12.871094 12.570312 12.875 C 12.636719 12.878906 12.699219 12.921875 12.746094 12.96875 C 12.769531 12.992188 12.796875 13.023438 12.832031 13.019531 C 12.871094 13.015625 12.890625 12.976562 12.925781 12.957031 C 12.960938 12.9375 13.011719 12.945312 13.042969 12.917969 C 13.070312 12.894531 13.074219 12.855469 13.089844 12.824219 C 13.117188 12.777344 13.179688 12.761719 13.210938 12.71875 C 13.230469 12.691406 13.335938 12.464844 13.351562 12.390625 C 13.398438 12.171875 13.261719 11.902344 13.183594 11.695312 C 13.160156 11.625 13.132812 11.554688 13.128906 11.484375 C 13.125 11.410156 13.324219 11.105469 13.402344 11.007812 C 13.855469 10.457031 14.386719 9.980469 14.917969 9.507812 C 15.09375 9.355469 15.269531 9.199219 15.441406 9.042969 C 15.550781 8.945312 15.683594 8.859375 15.835938 8.855469 C 15.992188 8.851562 16.152344 8.878906 16.296875 8.941406 C 16.441406 9.007812 16.578125 9.089844 16.726562 9.148438 C 16.859375 9.203125 17 9.238281 17.140625 9.273438 C 17.738281 9.429688 18.539062 9.441406 18.847656 9.980469 C 19.125 10.46875 18.550781 11.230469 18.515625 11.328125 C 18.4375 11.5625 18.304688 11.777344 18.171875 11.984375 C 18.035156 12.195312 17.902344 12.40625 17.765625 12.617188 C 17.617188 12.851562 17.464844 13.089844 17.335938 13.335938 C 17.230469 13.542969 17.136719 13.757812 17.011719 13.953125 C 16.71875 14.417969 16.269531 14.757812 15.917969 15.179688 C 15.757812 15.375 15.601562 15.582031 15.40625 15.707031 C 15.304688 15.773438 15.214844 15.847656 15.113281 15.910156 C 15.007812 15.976562 14.898438 16.039062 14.796875 16.113281 C 14.601562 16.269531 14.453125 16.488281 14.359375 16.722656 C 14.261719 16.957031 14.21875 17.207031 14.195312 17.457031 C 14.1875 17.558594 14.183594 17.65625 14.160156 17.753906 C 14.105469 17.96875 13.960938 18.164062 13.972656 18.414062 C 13.941406 18.488281 13.882812 18.539062 13.824219 18.59375 C 13.65625 18.746094 11.296875 21.441406 9.9375 22.171875 C 9.453125 22.429688 8.9375 22.625 8.492188 22.941406 C 8.039062 23.265625 7.675781 23.695312 7.359375 24.117188 C 6.863281 24.777344 6.355469 25.46875 5.632812 25.871094 C 5.601562 25.890625 5.566406 25.910156 5.527344 25.90625 C 5.476562 25.898438 5.445312 25.855469 5.402344 25.828125 C 5.351562 25.792969 5.289062 25.785156 5.226562 25.777344 C 4.769531 25.726562 4.316406 25.671875 3.859375 25.621094 C 3.816406 25.617188 3.777344 25.613281 3.742188 25.628906 C 3.675781 25.664062 3.667969 25.753906 3.667969 25.828125 C 3.667969 27.007812 3.605469 28.175781 3.75 29.320312 C 3.773438 29.519531 3.898438 29.84375 3.992188 30.019531 C 4.113281 30.25 4.273438 30.589844 4.441406 30.566406 C 4.53125 30.550781 4.609375 30.488281 4.652344 30.410156 C 4.75 30.234375 4.714844 30.039062 4.71875 29.847656 C 4.726562 29.453125 4.917969 29.078125 5.183594 28.785156 C 5.449219 28.492188 5.785156 28.277344 6.132812 28.089844 C 6.316406 27.988281 6.511719 27.882812 6.597656 27.695312 L 5.992188 27.6875 C 5.992188 27.515625 6.246094 27.484375 6.359375 27.351562 C 6.417969 27.277344 6.433594 27.179688 6.46875 27.089844 C 6.523438 26.949219 6.640625 26.84375 6.753906 26.742188 C 8.027344 25.585938 9.429688 24.574219 10.761719 23.621094 C 10.878906 23.558594 11 23.503906 11.128906 23.472656 C 11.265625 23.4375 11.410156 23.4375 11.542969 23.40625 C 11.625 23.386719 11.703125 23.359375 11.777344 23.328125 C 12.613281 22.980469 13.238281 22.25 14.042969 21.871094 C 14.398438 21.667969 14.742188 21.441406 15.066406 21.191406 C 15.503906 20.859375 15.898438 20.46875 16.285156 20.078125 C 16.582031 19.785156 16.878906 19.484375 17.109375 19.101562 C 17.367188 19.128906 17.617188 19.199219 17.871094 19.253906 C 19.457031 19.601562 21.136719 19.464844 22.667969 19.996094 C 22.796875 20.042969 22.929688 20.128906 22.9375 20.246094 C 22.96875 20.703125 22.984375 21.15625 23.046875 21.609375 C 23.21875 22.871094 24.292969 23.847656 24.574219 25.089844 C 24.617188 25.273438 24.640625 25.464844 24.601562 25.652344 C 24.578125 25.757812 24.535156 25.863281 24.492188 25.964844 C 24.328125 26.371094 24.207031 26.792969 24.125 27.222656 C 24.113281 27.28125 24.105469 27.347656 24.128906 27.402344 C 24.167969 27.488281 24.265625 27.519531 24.359375 27.527344 C 24.449219 27.535156 24.535156 27.570312 24.625 27.5625 C 24.648438 27.5625 25.253906 27.589844 25.808594 27.65625 C 25.964844 27.675781 26.121094 27.691406 26.273438 27.730469 C 26.515625 27.792969 26.75 27.902344 26.996094 27.953125 C 27.503906 28.0625 28.03125 27.914062 28.507812 27.707031 C 28.59375 27.667969 28.683594 27.625 28.75 27.558594 C 28.816406 27.492188 28.859375 27.390625 28.832031 27.300781 C 28.804688 27.203125 28.714844 27.136719 28.617188 27.109375 C 28.519531 27.082031 28.417969 27.082031 28.316406 27.066406 C 28.183594 27.050781 28.054688 27.007812 27.9375 26.945312 C 27.636719 26.78125 27.429688 26.484375 27.148438 26.28125 C 27.070312 26.222656 26.988281 26.171875 26.929688 26.097656 C 26.855469 25.992188 26.835938 25.851562 26.746094 25.757812 C 26.671875 25.679688 26.550781 25.636719 26.519531 25.53125 C 26.5 25.464844 26.519531 25.386719 26.472656 25.335938 C 26.410156 25.269531 26.167969 25.359375 26.117188 25.351562 C 26.066406 25.34375 26.027344 25.308594 25.996094 25.269531 C 25.9375 25.199219 25.890625 25.121094 25.871094 25.0625 C 25.496094 23.910156 25.355469 22.691406 25.027344 21.523438 C 24.953125 21.261719 24.863281 21.003906 24.792969 20.738281 C 24.652344 20.234375 24.554688 19.710938 24.5625 19.207031 C 24.5625 18.976562 24.453125 18.636719 24.304688 18.464844 C 24.117188 18.246094 23.855469 18.101562 23.582031 18.003906 C 23.421875 17.949219 23.253906 17.90625 23.101562 17.835938 C 22.941406 17.757812 22.800781 17.648438 22.648438 17.558594 C 22.527344 17.488281 22.398438 17.429688 22.265625 17.375 C 21.359375 16.972656 20.425781 16.625 19.433594 16.367188 C 19.386719 16.347656 19.355469 16.304688 19.347656 16.253906 C 19.324219 16.101562 19.417969 16 19.507812 15.902344 C 19.820312 15.566406 20.144531 15.238281 20.472656 14.914062 C 20.578125 14.8125 20.6875 14.707031 20.804688 14.617188 C 20.945312 14.511719 21.105469 14.421875 21.28125 14.382812 C 21.535156 14.328125 21.8125 14.382812 22.046875 14.277344 C 22.242188 14.191406 22.378906 14.007812 22.464844 13.8125 C 22.554688 13.621094 22.597656 13.410156 22.660156 13.207031 C 22.679688 13.140625 22.703125 13.078125 22.746094 13.023438 C 22.851562 12.898438 23.042969 12.871094 23.15625 12.742188 C 23.289062 12.847656 23.324219 13.027344 23.363281 13.191406 C 23.386719 13.304688 23.417969 13.414062 23.457031 13.527344 C 23.550781 13.804688 23.675781 14.074219 23.804688 14.335938 C 24.050781 14.84375 24.316406 15.339844 24.597656 15.824219 C 24.667969 15.941406 24.738281 16.058594 24.828125 16.160156 C 24.914062 16.257812 25.019531 16.34375 25.144531 16.367188 C 25.246094 16.382812 25.347656 16.359375 25.421875 16.328125 C 25.457031 16.308594 25.488281 16.292969 25.523438 16.269531 C 25.945312 16.015625 26.371094 15.75 26.746094 15.421875 C 26.929688 15.261719 27.097656 15.085938 27.277344 14.921875 C 27.417969 14.792969 27.5625 14.675781 27.710938 14.5625 C 27.824219 14.476562 27.941406 14.390625 28.054688 14.304688 C 28.257812 14.148438 28.453125 13.980469 28.648438 13.808594 C 28.75 13.722656 28.851562 13.632812 28.945312 13.554688 C 29.046875 13.417969 29.210938 13.339844 29.324219 13.207031 C 29.390625 13.125 29.433594 13.019531 29.476562 12.921875 C 29.496094 12.871094 29.515625 12.824219 29.519531 12.773438 C 29.519531 12.738281 29.507812 12.699219 29.5 12.664062 C 29.476562 12.585938 29.425781 12.519531 29.382812 12.449219 C 29.320312 12.339844 29.199219 12.179688 29.113281 12.089844 L 29.09375 12.074219 C 29.082031 12.003906 29.035156 11.941406 28.96875 11.910156 C 28.945312 11.898438 28.917969 11.890625 28.898438 11.875 C 28.882812 11.855469 28.875 11.832031 28.867188 11.8125 C 28.832031 11.730469 28.753906 11.664062 28.664062 11.644531 C 28.722656 11.550781 28.71875 11.417969 28.648438 11.332031 C 28.632812 11.308594 28.597656 11.289062 28.578125 11.304688 C 28.5625 11.320312 28.5625 11.339844 28.5625 11.359375 C 28.554688 11.460938 28.441406 11.519531 28.382812 11.601562 C 28.324219 11.6875 28.320312 11.804688 28.273438 11.898438 C 28.226562 12.003906 28.136719 12.078125 28.085938 12.179688 C 27.9375 12.464844 28.152344 12.824219 28.039062 13.140625 L 27.574219 13.542969 C 27.21875 13.851562 26.859375 14.164062 26.433594 14.355469 C 26.125 14.492188 25.789062 14.5625 25.46875 14.753906 C 25.378906 14.335938 25.296875 13.910156 25.105469 13.527344 C 25.011719 13.347656 24.898438 13.179688 24.828125 12.992188 C 24.785156 12.867188 24.757812 12.742188 24.734375 12.613281 C 24.652344 12.160156 24.613281 11.691406 24.453125 11.242188 C 24.539062 11.21875 24.613281 11.152344 24.644531 11.070312 C 24.671875 11.003906 24.675781 10.925781 24.730469 10.878906 C 24.765625 10.847656 24.816406 10.835938 24.851562 10.804688 C 24.910156 10.761719 24.929688 10.675781 24.898438 10.609375 C 25 10.578125 25.164062 10.640625 25.210938 10.574219 C 25.226562 10.523438 25.25 10.425781 25.261719 10.375 C 25.269531 10.347656 25.277344 10.316406 25.300781 10.300781 C 25.332031 10.277344 25.375 10.285156 25.410156 10.292969 C 25.453125 10.300781 25.492188 10.3125 25.535156 10.320312 C 25.554688 10.324219 25.589844 10.320312 25.609375 10.308594 C 25.632812 10.296875 25.644531 10.242188 25.644531 10.21875 C 25.636719 10.132812 25.617188 10.070312 25.613281 9.964844 C 25.605469 9.855469 25.574219 9.746094 25.578125 9.636719 C 25.578125 9.535156 25.625 9.433594 25.703125 9.371094 C 25.738281 9.34375 25.800781 9.328125 25.84375 9.34375 C 25.898438 9.359375 25.941406 9.398438 25.988281 9.433594 C 26.050781 9.472656 26.125 9.5 26.195312 9.527344 C 26.324219 9.578125 26.460938 9.628906 26.59375 9.601562 C 26.675781 9.585938 26.746094 9.546875 26.8125 9.492188 C 26.90625 9.417969 26.980469 9.316406 27.023438 9.1875 C 26.996094 9.097656 26.886719 9.0625 26.792969 9.03125 C 26.605469 8.960938 26.457031 8.820312 26.277344 8.730469 C 25.933594 8.558594 25.917969 8.34375 25.902344 8.320312 C 25.886719 8.296875 25.878906 8.269531 25.875 8.242188 C 25.523438 5.867188 23.039062 6.800781 22.796875 6.996094 C 22.21875 7.453125 22.324219 7.554688 22.203125 7.621094 C 22.070312 7.691406 21.90625 7.667969 21.761719 7.703125 C 21.648438 7.730469 21.546875 7.796875 21.457031 7.875 C 21.167969 8.128906 21.019531 8.496094 20.929688 8.890625 Z M 20.929688 8.890625 " fill-opacity="1" fill-rule="nonzero"/></g><path fill="#060606" d="M 16.511719 18.46875 C 16.550781 18.1875 16.8125 17.796875 17.085938 17.71875 C 17.355469 17.636719 17.652344 17.679688 17.917969 17.773438 C 18.183594 17.871094 18.429688 18.011719 18.6875 18.136719 C 19.359375 18.464844 20.089844 18.660156 20.824219 18.804688 C 21.414062 18.917969 22.074219 19.375 22.59375 19.667969 C 22.023438 19.464844 21.507812 19.367188 20.902344 19.324219 C 19.527344 19.222656 17.804688 19.125 16.511719 18.46875 Z M 16.511719 18.46875 " fill-opacity="1" fill-rule="nonzero"/><path fill="#060606" d="M 24.371094 19.546875 C 24.167969 19.027344 23.714844 18.65625 23.277344 18.308594 C 23.820312 18.980469 24.21875 19.769531 24.429688 20.609375 C 24.152344 20.21875 23.871094 19.828125 23.589844 19.433594 C 24.253906 20.699219 24.136719 22.246094 24.738281 23.542969 C 24.601562 22.984375 24.535156 22.410156 24.535156 21.835938 C 24.828125 22.941406 25.125 24.050781 25.539062 25.113281 C 25.433594 24.652344 25.367188 24.140625 25.292969 23.671875 C 25.054688 22.230469 24.78125 21.4375 24.519531 20.269531 C 24.4375 19.914062 24.402344 19.488281 24.226562 19.171875 C 24.027344 18.820312 23.714844 18.53125 23.347656 18.363281 " fill-opacity="1" fill-rule="nonzero"/><path fill="#060606" d="M 15.488281 19.226562 C 15.234375 19.125 14.949219 19.128906 14.703125 19.246094 C 14.550781 19.320312 14.40625 19.414062 14.285156 19.527344 C 14.023438 19.765625 13.828125 20.097656 13.503906 20.234375 C 13.703125 20.027344 13.847656 19.765625 13.914062 19.480469 C 13.488281 19.625 13.144531 19.9375 12.855469 20.28125 C 12.5625 20.621094 12.320312 21 12.023438 21.335938 C 11.5625 21.847656 10.980469 22.253906 10.335938 22.5 C 10.085938 22.597656 9.820312 22.671875 9.621094 22.851562 C 9.714844 22.703125 9.851562 22.589844 9.992188 22.484375 C 10.21875 22.308594 10.460938 22.152344 10.6875 21.980469 C 11.992188 21.011719 12.859375 19.753906 14.085938 18.6875 C 14.324219 18.753906 14.644531 18.777344 14.839844 18.832031 C 15.089844 18.898438 15.320312 19.039062 15.492188 19.226562 C 15.492188 19.226562 15.488281 19.226562 15.488281 19.226562 Z M 15.488281 19.226562 " fill-opacity="1" fill-rule="nonzero"/><path fill="#060606" d="M 16.160156 19.667969 C 15.636719 19.878906 15.253906 20.320312 14.878906 20.738281 C 14.5 21.15625 14.085938 21.582031 13.542969 21.730469 C 13.285156 21.804688 13.007812 21.808594 12.742188 21.859375 C 11.863281 22.035156 11.183594 22.730469 10.617188 23.429688 C 10.945312 23.246094 11.347656 23.289062 11.695312 23.152344 C 12.152344 22.980469 12.441406 22.542969 12.847656 22.277344 C 13.136719 22.085938 13.472656 21.988281 13.785156 21.847656 C 14.175781 21.671875 14.527344 21.417969 14.824219 21.113281 C 15.269531 20.652344 15.589844 20.0625 16.160156 19.667969 Z M 16.160156 19.667969 " fill-opacity="1" fill-rule="nonzero"/><path fill="#060606" d="M 11.128906 22.390625 C 10.675781 22.730469 10.410156 23.257812 10.046875 23.6875 C 9.597656 24.222656 9.003906 24.613281 8.4375 25.019531 C 7.828125 25.457031 7.238281 25.925781 6.738281 26.484375 C 6.902344 26.199219 7.070312 25.914062 7.238281 25.628906 C 7.347656 25.4375 7.457031 25.25 7.582031 25.070312 C 8.421875 23.851562 9.820312 23.15625 11.128906 22.390625 Z M 11.128906 22.390625 " fill-opacity="1" fill-rule="nonzero"/><path fill="#060606" d="M 19.433594 15.875 C 19.542969 15.601562 19.710938 15.351562 19.925781 15.152344 C 20.085938 15.003906 20.277344 14.867188 20.355469 14.664062 C 20.371094 14.621094 20.378906 14.574219 20.371094 14.53125 C 20.355469 14.449219 20.273438 14.394531 20.195312 14.367188 C 19.933594 14.277344 19.65625 14.40625 19.386719 14.460938 C 19.0625 14.53125 18.726562 14.503906 18.398438 14.460938 C 18.953125 14.742188 19.347656 15.308594 19.433594 15.875 Z M 19.433594 15.875 " fill-opacity="1" fill-rule="nonzero"/><path fill="#060606" d="M 18.929688 10.769531 C 18.726562 11.480469 18.382812 12.15625 17.925781 12.738281 C 17.820312 12.875 17.707031 13.007812 17.625 13.160156 C 17.496094 13.398438 17.453125 13.683594 17.289062 13.902344 C 17.144531 14.089844 16.917969 14.222656 16.855469 14.449219 C 16.96875 14.230469 17.242188 14.152344 17.488281 14.121094 C 17.734375 14.089844 18 14.070312 18.1875 13.90625 C 18.324219 13.78125 18.390625 13.597656 18.417969 13.414062 C 18.449219 13.234375 18.445312 13.046875 18.476562 12.867188 C 18.515625 12.621094 18.613281 12.394531 18.691406 12.160156 C 18.847656 11.699219 18.9375 11.214844 18.929688 10.769531 Z M 18.929688 10.769531 " fill-opacity="1" fill-rule="nonzero"/><path fill="#060606" d="M 22.949219 11.027344 C 22.671875 11.375 22.542969 11.832031 22.214844 12.128906 C 22.109375 12.222656 21.949219 12.300781 21.835938 12.21875 C 21.792969 12.191406 21.765625 12.140625 21.742188 12.09375 C 21.609375 11.824219 21.652344 11.617188 21.714844 11.21875 C 21.566406 11.550781 21.566406 11.765625 21.566406 12.019531 C 21.566406 12.222656 21.570312 12.433594 21.664062 12.613281 C 21.722656 12.726562 21.8125 12.824219 21.921875 12.886719 C 22.007812 12.933594 22.105469 12.960938 22.199219 12.945312 C 22.320312 12.921875 22.410156 12.824219 22.480469 12.722656 C 22.59375 12.546875 22.652344 12.34375 22.710938 12.144531 C 22.800781 11.847656 22.886719 11.550781 22.972656 11.253906 C 22.996094 11.179688 23.007812 11.074219 22.949219 11.027344 Z M 22.949219 11.027344 " fill-opacity="1" fill-rule="nonzero"/><path fill="#060606" d="M 23.96875 8.804688 C 23.925781 8.804688 23.886719 8.804688 23.84375 8.804688 C 23.859375 8.695312 23.710938 8.613281 23.609375 8.660156 C 23.507812 8.703125 23.457031 8.828125 23.460938 8.9375 C 23.460938 9.101562 23.5625 9.265625 23.71875 9.3125 C 23.746094 9.320312 23.78125 9.328125 23.796875 9.355469 C 23.828125 9.429688 23.671875 9.449219 23.65625 9.53125 C 23.570312 9.488281 23.5 9.410156 23.472656 9.320312 C 23.464844 9.292969 23.460938 9.265625 23.4375 9.25 C 23.414062 9.234375 23.382812 9.242188 23.355469 9.25 C 23.253906 9.28125 23.164062 9.351562 23.105469 9.445312 C 23.082031 9.480469 23.0625 9.523438 23.035156 9.558594 C 22.953125 9.65625 22.804688 9.671875 22.679688 9.644531 C 22.554688 9.613281 22.445312 9.542969 22.328125 9.488281 C 22.214844 9.433594 22.078125 9.398438 21.957031 9.4375 C 22.117188 9.363281 22.175781 9.148438 22.339844 9.085938 C 22.464844 9.039062 22.597656 9.097656 22.722656 9.140625 C 22.84375 9.179688 22.972656 9.199219 23.097656 9.199219 C 23.148438 9.199219 23.203125 9.195312 23.238281 9.164062 C 23.316406 9.101562 23.28125 8.980469 23.273438 8.882812 C 23.265625 8.722656 23.363281 8.5625 23.511719 8.496094 C 23.660156 8.429688 23.84375 8.464844 23.957031 8.578125 C 23.988281 8.609375 24.015625 8.648438 24.015625 8.695312 C 24.015625 8.738281 23.984375 8.785156 23.96875 8.804688 Z M 23.96875 8.804688 " fill-opacity="1" fill-rule="nonzero"/><path fill="#060606" d="M 24.324219 10.996094 C 24.160156 10.886719 24.015625 10.753906 23.898438 10.59375 C 23.867188 10.550781 23.835938 10.5 23.792969 10.460938 C 23.746094 10.417969 23.6875 10.386719 23.628906 10.363281 C 23.449219 10.300781 23.246094 10.332031 23.070312 10.40625 C 22.898438 10.480469 22.746094 10.597656 22.59375 10.714844 C 22.78125 10.679688 22.96875 10.644531 23.15625 10.613281 C 23.300781 10.59375 23.445312 10.574219 23.582031 10.617188 C 23.695312 10.65625 23.789062 10.730469 23.886719 10.796875 C 24.011719 10.875 24.144531 10.9375 24.324219 10.996094 Z M 24.324219 10.996094 " fill-opacity="1" fill-rule="nonzero"/><path fill="#060606" d="M 22.339844 11.710938 C 22.207031 11.726562 22.09375 11.589844 22.085938 11.457031 C 22.058594 11.03125 22.445312 10.597656 22.488281 10.550781 C 22.667969 10.375 23.253906 10.3125 23.332031 9.613281 C 23.164062 9.855469 22.882812 9.988281 22.617188 10.121094 C 22.355469 10.253906 22.082031 10.421875 21.96875 10.691406 C 21.917969 10.816406 21.902344 10.953125 21.890625 11.085938 C 21.878906 11.246094 21.867188 11.410156 21.855469 11.570312 C 21.851562 11.636719 21.847656 11.707031 21.871094 11.773438 C 21.90625 11.875 22.011719 11.949219 22.117188 11.949219 C 22.226562 11.945312 22.328125 11.871094 22.339844 11.710938 Z M 22.339844 11.710938 " fill-opacity="1" fill-rule="nonzero"/><path fill="#060606" d="M 25.429688 10.167969 C 25.34375 10.105469 25.234375 10.078125 25.128906 10.09375 C 25.070312 10.105469 24.996094 10.121094 24.953125 10.078125 C 24.921875 10.042969 24.929688 9.984375 24.957031 9.945312 C 24.988281 9.90625 25.03125 9.882812 25.074219 9.863281 C 25.066406 9.886719 25.054688 9.910156 25.058594 9.9375 C 25.058594 9.964844 25.070312 9.992188 25.09375 10 C 25.109375 10.007812 25.128906 10.003906 25.144531 10.003906 C 25.203125 9.996094 25.257812 9.992188 25.316406 9.984375 C 25.328125 9.984375 25.339844 9.980469 25.347656 9.976562 C 25.363281 9.964844 25.367188 9.945312 25.371094 9.929688 C 25.410156 9.753906 25.382812 9.5625 25.476562 9.40625 C 25.445312 9.488281 25.460938 9.582031 25.472656 9.667969 C 25.492188 9.789062 25.511719 9.910156 25.53125 10.03125 C 25.539062 10.070312 25.542969 10.113281 25.523438 10.148438 C 25.503906 10.183594 25.460938 10.191406 25.429688 10.167969 Z M 25.429688 10.167969 " fill-opacity="1" fill-rule="nonzero"/><path fill="#060606" d="M 23.695312 11.371094 C 23.746094 11.710938 23.710938 12.058594 23.585938 12.378906 C 23.519531 12.546875 23.429688 12.707031 23.398438 12.886719 C 23.601562 12.753906 23.820312 12.644531 24.046875 12.558594 C 24.113281 12.535156 24.183594 12.511719 24.246094 12.542969 C 24.277344 12.554688 24.300781 12.578125 24.316406 12.605469 C 24.457031 12.792969 24.40625 13.058594 24.417969 13.292969 C 24.421875 13.445312 24.457031 13.59375 24.515625 13.734375 C 24.554688 13.828125 24.609375 13.917969 24.679688 13.992188 C 24.792969 14.109375 24.953125 14.179688 25.039062 14.316406 C 25.167969 14.511719 25.105469 14.769531 25.117188 15.003906 C 25.121094 15.128906 25.152344 15.253906 25.203125 15.371094 C 25.214844 15.402344 25.230469 15.433594 25.261719 15.449219 C 25.296875 15.464844 25.34375 15.445312 25.371094 15.414062 C 25.394531 15.382812 25.40625 15.339844 25.410156 15.300781 C 25.425781 15.167969 25.402344 15.035156 25.378906 14.90625 C 25.207031 13.953125 24.933594 13.679688 24.601562 12.871094 C 24.496094 12.617188 24.488281 12.328125 24.484375 12.050781 C 24.484375 11.960938 24.484375 11.871094 24.457031 11.785156 C 24.386719 11.59375 24.179688 11.492188 23.992188 11.417969 C 23.886719 11.375 23.753906 11.339844 23.695312 11.371094 Z M 23.695312 11.371094 " fill-opacity="1" fill-rule="nonzero"/><path fill="#060606" d="M 28.660156 13.472656 C 28.464844 13.609375 28.332031 13.816406 28.152344 13.976562 C 27.976562 14.125 27.765625 14.226562 27.585938 14.371094 C 27.320312 14.585938 27.140625 14.894531 26.898438 15.140625 C 26.730469 15.308594 26.53125 15.449219 26.3125 15.546875 C 26.011719 15.683594 25.65625 15.753906 25.4375 16.003906 C 25.398438 16.046875 25.367188 16.09375 25.316406 16.125 C 25.226562 16.179688 25.109375 16.160156 25.019531 16.105469 C 24.933594 16.046875 24.871094 15.960938 24.808594 15.875 C 24.722656 15.757812 24.636719 15.636719 24.550781 15.515625 C 24.847656 15.652344 25.191406 15.664062 25.511719 15.59375 C 25.832031 15.523438 26.128906 15.375 26.40625 15.203125 C 26.582031 15.097656 26.753906 14.976562 26.890625 14.820312 C 26.988281 14.703125 27.066406 14.570312 27.171875 14.457031 C 27.394531 14.222656 27.714844 14.121094 27.980469 13.9375 C 28.203125 13.777344 28.398438 13.554688 28.660156 13.472656 Z M 28.660156 13.472656 " fill-opacity="1" fill-rule="nonzero"/><g clip-path="url(#b9bc730534)"><path fill="#060606" d="M 28.265625 12.25 C 28.257812 12.308594 28.289062 12.367188 28.328125 12.414062 C 28.367188 12.457031 28.414062 12.496094 28.453125 12.542969 C 28.53125 12.640625 28.554688 12.769531 28.566406 12.894531 C 28.574219 12.949219 28.585938 13.015625 28.640625 13.035156 C 28.667969 13.042969 28.691406 13.039062 28.71875 13.03125 C 28.894531 13 29.070312 12.964844 29.246094 12.933594 C 29.160156 13.125 29.066406 13.328125 28.882812 13.4375 C 28.851562 13.457031 28.8125 13.472656 28.773438 13.472656 C 28.738281 13.472656 28.695312 13.453125 28.683594 13.421875 C 28.675781 13.402344 28.675781 13.378906 28.667969 13.359375 C 28.648438 13.289062 28.558594 13.265625 28.503906 13.210938 C 28.464844 13.171875 28.449219 13.117188 28.429688 13.066406 C 28.34375 12.800781 28.253906 12.53125 28.265625 12.25 Z M 28.265625 12.25 " fill-opacity="1" fill-rule="nonzero"/></g><g clip-path="url(#e6bc0770e7)"><path fill="#060606" d="M 29.054688 12.910156 C 29.113281 12.855469 29.171875 12.800781 29.21875 12.734375 C 29.265625 12.667969 29.300781 12.59375 29.304688 12.511719 C 29.34375 12.554688 29.382812 12.609375 29.378906 12.664062 C 29.375 12.714844 29.335938 12.753906 29.296875 12.789062 C 29.222656 12.847656 29.136719 12.898438 29.054688 12.910156 Z M 29.054688 12.910156 " fill-opacity="1" fill-rule="nonzero"/></g><g clip-path="url(#9b826ab3d5)"><path fill="#060606" d="M 29.242188 12.378906 C 29.195312 12.355469 29.140625 12.332031 29.085938 12.34375 C 29.027344 12.355469 28.984375 12.414062 28.949219 12.464844 C 28.910156 12.523438 28.871094 12.582031 28.832031 12.640625 C 28.863281 12.542969 28.90625 12.453125 28.957031 12.363281 C 28.988281 12.308594 29.03125 12.253906 29.089844 12.25 C 29.136719 12.246094 29.175781 12.273438 29.203125 12.308594 C 29.230469 12.34375 29.246094 12.382812 29.242188 12.378906 Z M 29.242188 12.378906 " fill-opacity="1" fill-rule="nonzero"/></g><g clip-path="url(#647b255174)"><path fill="#060606" d="M 29.039062 12.078125 C 28.992188 12.046875 28.921875 12.042969 28.871094 12.066406 C 28.824219 12.089844 28.796875 12.132812 28.773438 12.171875 C 28.726562 12.25 28.679688 12.328125 28.632812 12.402344 C 28.664062 12.316406 28.699219 12.230469 28.734375 12.144531 C 28.75 12.101562 28.765625 12.058594 28.800781 12.027344 C 28.835938 11.992188 28.898438 11.972656 28.945312 11.992188 C 29 12.011719 29.019531 12.066406 29.039062 12.078125 Z M 29.039062 12.078125 " fill-opacity="1" fill-rule="nonzero"/></g><path fill="#060606" d="M 28.597656 11.441406 C 28.574219 11.675781 28.46875 11.890625 28.363281 12.101562 C 28.394531 12.050781 28.429688 12 28.464844 11.949219 C 28.503906 11.894531 28.550781 11.839844 28.613281 11.8125 C 28.671875 11.78125 28.753906 11.789062 28.796875 11.839844 C 28.757812 11.769531 28.671875 11.722656 28.589844 11.726562 C 28.625 11.625 28.628906 11.515625 28.597656 11.441406 Z M 28.597656 11.441406 " fill-opacity="1" fill-rule="nonzero"/><path fill="#060606" d="M 20.992188 10.1875 C 20.824219 10.148438 20.730469 9.96875 20.6875 9.804688 C 20.648438 9.636719 20.636719 9.457031 20.542969 9.3125 C 20.445312 9.152344 20.257812 9.0625 20.074219 9.03125 C 19.886719 8.996094 19.6875 9.019531 19.507812 9.089844 C 19.316406 9.167969 19.148438 9.300781 18.945312 9.363281 C 18.582031 9.480469 18.1875 9.332031 17.835938 9.175781 C 18.132812 8.820312 18.542969 8.527344 19.003906 8.5 C 19.316406 8.480469 19.625 8.582031 19.921875 8.6875 C 20.152344 8.765625 20.378906 8.847656 20.609375 8.933594 C 20.867188 9.023438 21.160156 9.152344 21.234375 9.417969 C 21.277344 9.566406 21.234375 9.722656 21.191406 9.871094 C 21.152344 10.003906 21.109375 10.136719 20.992188 10.1875 Z M 20.992188 10.1875 " fill-opacity="1" fill-rule="nonzero"/><path fill="#060606" d="M 18.410156 8.375 C 18.066406 8.296875 17.703125 8.296875 17.359375 8.378906 C 17.195312 8.421875 17.03125 8.480469 16.863281 8.492188 C 16.691406 8.507812 16.503906 8.46875 16.390625 8.34375 C 16.292969 8.234375 16.246094 8.066406 16.109375 8.019531 C 16.046875 7.996094 15.976562 8.003906 15.914062 7.996094 C 15.847656 7.984375 15.777344 7.945312 15.769531 7.878906 C 15.761719 7.824219 15.804688 7.773438 15.859375 7.753906 C 15.910156 7.730469 15.964844 7.734375 16.023438 7.738281 C 16.867188 7.789062 17.699219 8.027344 18.410156 8.375 Z M 18.410156 8.375 " fill-opacity="1" fill-rule="nonzero"/><path fill="#060606" d="M 15.632812 7.8125 C 15.4375 7.953125 15.320312 8.179688 15.191406 8.382812 C 15.035156 8.632812 14.851562 8.859375 14.644531 9.066406 C 14.410156 9.296875 14.144531 9.496094 13.921875 9.738281 C 13.601562 10.078125 13.097656 10.359375 12.863281 10.769531 C 13.082031 10.125 13.574219 9.667969 14.027344 9.214844 C 14.273438 8.972656 14.5625 8.777344 14.789062 8.515625 C 14.910156 8.375 15.011719 8.21875 15.136719 8.089844 C 15.265625 7.957031 15.433594 7.851562 15.632812 7.8125 Z M 15.632812 7.8125 " fill-opacity="1" fill-rule="nonzero"/><path fill="#060606" d="M 11.820312 12.039062 C 12.042969 11.648438 12.304688 11.28125 12.59375 10.941406 C 12.625 10.902344 12.667969 10.863281 12.71875 10.875 C 12.5625 11.226562 12.429688 11.589844 12.328125 11.964844 C 12.308594 12.03125 12.292969 12.109375 12.332031 12.167969 C 12.347656 12.195312 12.382812 12.214844 12.414062 12.203125 C 12.441406 12.191406 12.457031 12.160156 12.464844 12.132812 C 12.511719 12.023438 12.558594 11.914062 12.601562 11.804688 C 12.558594 12.109375 12.507812 12.414062 12.441406 12.714844 C 12.398438 12.742188 12.363281 12.675781 12.367188 12.625 C 12.371094 12.546875 12.398438 12.46875 12.398438 12.386719 C 12.394531 12.308594 12.351562 12.21875 12.273438 12.203125 C 12.214844 12.214844 12.199219 12.292969 12.191406 12.355469 C 12.179688 12.417969 12.117188 12.488281 12.066406 12.449219 C 12.03125 12.421875 12.046875 12.363281 12.039062 12.320312 C 12.03125 12.253906 11.964844 12.210938 11.914062 12.167969 C 11.859375 12.128906 11.816406 12.046875 11.820312 12.039062 Z M 11.820312 12.039062 " fill-opacity="1" fill-rule="nonzero"/><path fill="#060606" d="M 12.558594 12.738281 L 12.628906 12.515625 C 12.683594 12.527344 12.738281 12.527344 12.789062 12.515625 C 12.808594 12.511719 12.824219 12.507812 12.835938 12.496094 C 12.84375 12.488281 12.851562 12.480469 12.855469 12.46875 C 12.878906 12.417969 12.894531 12.359375 12.90625 12.304688 L 13.015625 11.730469 C 13.03125 11.898438 13.078125 12.058594 13.15625 12.207031 C 13.199219 12.292969 13.253906 12.394531 13.203125 12.476562 C 13.179688 12.511719 13.136719 12.535156 13.109375 12.566406 C 13.046875 12.636719 13.039062 12.757812 12.949219 12.785156 C 12.875 12.804688 12.796875 12.738281 12.722656 12.757812 C 12.683594 12.765625 12.644531 12.800781 12.558594 12.738281 Z M 12.558594 12.738281 " fill-opacity="1" fill-rule="nonzero"/><path fill="#060606" d="M 15.464844 18.605469 C 15.148438 18.105469 14.816406 17.550781 14.882812 16.960938 C 14.949219 16.429688 15.335938 15.988281 15.769531 15.664062 C 15.417969 16.0625 15.203125 16.570312 15.15625 17.097656 C 15.109375 17.625 15.238281 18.164062 15.464844 18.605469 Z M 15.464844 18.605469 " fill-opacity="1" fill-rule="nonzero"/><path fill="#060606" d="M 23.75 10.183594 C 24.265625 10.25 24.3125 10.25 24.484375 9.984375 C 24.59375 9.820312 24.769531 9.6875 24.957031 9.636719 C 24.824219 9.742188 24.71875 9.882812 24.65625 10.039062 C 24.617188 10.140625 24.589844 10.25 24.519531 10.328125 C 24.445312 10.417969 24.320312 10.453125 24.203125 10.445312 C 24.089844 10.429688 23.980469 10.375 23.894531 10.296875 C 23.839844 10.25 23.792969 10.191406 23.75 10.183594 Z M 23.75 10.183594 " fill-opacity="1" fill-rule="nonzero"/><path fill="#060606" d="M 19.144531 10.082031 C 19.34375 10.195312 19.453125 10.417969 19.507812 10.636719 C 19.5625 10.855469 19.574219 11.085938 19.636719 11.304688 C 19.652344 11.359375 19.671875 11.417969 19.714844 11.457031 C 19.753906 11.492188 19.808594 11.503906 19.863281 11.507812 C 20.042969 11.511719 20.203125 11.386719 20.308594 11.242188 C 20.421875 11.085938 20.492188 10.886719 20.449219 10.699219 C 20.4375 10.636719 20.410156 10.578125 20.390625 10.511719 C 20.335938 10.347656 20.34375 10.167969 20.335938 9.992188 C 20.332031 9.847656 20.300781 9.675781 20.167969 9.617188 C 20.035156 9.558594 19.886719 9.648438 19.769531 9.734375 C 19.582031 9.867188 19.390625 9.992188 19.144531 10.082031 Z M 19.144531 10.082031 " fill-opacity="1" fill-rule="nonzero"/><path fill="#060606" d="M 18.867188 15.90625 C 18.558594 15.523438 18.15625 15.203125 17.691406 15.039062 C 17.226562 14.875 16.695312 14.875 16.253906 15.089844 C 17.046875 14.910156 17.921875 15.140625 18.523438 15.691406 C 18.722656 15.871094 18.972656 16.128906 19.160156 16.320312 C 19.210938 16.238281 19.117188 16.066406 19.074219 15.980469 C 18.839844 15.546875 18.507812 15.128906 18.074219 14.898438 C 18.375 14.980469 18.671875 15.109375 18.894531 15.324219 C 19.121094 15.539062 19.269531 15.847656 19.234375 16.160156 C 19.226562 16.199219 19.21875 16.246094 19.1875 16.273438 C 19.152344 16.300781 19.15625 16.257812 18.867188 15.90625 Z M 18.867188 15.90625 " fill-opacity="1" fill-rule="nonzero"/><g clip-path="url(#5c4d49bfc9)"><path fill="#060606" d="M 3.863281 25.78125 C 3.886719 26.207031 3.929688 26.710938 3.886719 27.132812 C 3.863281 27.335938 3.828125 27.53125 3.8125 27.734375 C 3.796875 27.992188 3.816406 28.246094 3.835938 28.503906 C 3.863281 28.847656 3.890625 29.191406 3.980469 29.527344 C 4.070312 29.859375 4.21875 30.183594 4.464844 30.429688 C 4.082031 29.40625 3.992188 28.277344 4.210938 27.207031 C 4.242188 27.050781 4.28125 26.890625 4.308594 26.734375 C 4.355469 26.472656 4.375 26.210938 4.367188 25.949219 C 4.363281 25.910156 4.367188 25.882812 4.367188 25.835938 C 4.363281 25.8125 4.1875 25.78125 4.097656 25.78125 C 4.015625 25.78125 3.917969 25.792969 3.863281 25.78125 Z M 3.863281 25.78125 " fill-opacity="1" fill-rule="nonzero"/></g><path fill="#060606" d="M 24.375 26.964844 C 24.695312 26.882812 25.117188 26.976562 25.433594 27.078125 C 25.746094 27.175781 25.988281 27.257812 26.304688 27.355469 C 26.523438 27.425781 26.691406 27.503906 26.855469 27.539062 C 26.996094 27.570312 27.164062 27.628906 27.304688 27.65625 C 27.78125 27.75 28.273438 27.617188 28.710938 27.402344 C 28.589844 27.554688 28.398438 27.636719 28.214844 27.703125 C 28.082031 27.75 27.945312 27.792969 27.808594 27.816406 C 27.265625 27.90625 26.730469 27.6875 26.203125 27.539062 C 25.59375 27.371094 24.957031 27.296875 24.324219 27.324219 C 24.332031 27.222656 24.363281 26.992188 24.375 26.964844 Z M 24.375 26.964844 " fill-opacity="1" fill-rule="nonzero"/><path fill="#060606" d="M 22.175781 8.796875 C 22.308594 8.710938 22.445312 8.613281 22.519531 8.472656 C 22.539062 8.433594 22.554688 8.382812 22.542969 8.339844 C 22.527344 8.273438 22.464844 8.234375 22.414062 8.191406 C 22.339844 8.125 22.289062 8.03125 22.277344 7.929688 C 22.273438 8.003906 22.214844 8.0625 22.171875 8.121094 C 22.035156 8.304688 22.039062 8.578125 22.175781 8.796875 Z M 22.175781 8.796875 " fill-opacity="1" fill-rule="nonzero"/><path fill="#060606" d="M 26.925781 9.097656 C 26.847656 9.269531 26.636719 9.355469 26.445312 9.34375 C 26.253906 9.332031 26.078125 9.242188 25.910156 9.148438 C 25.621094 8.984375 25.339844 8.800781 25.070312 8.605469 C 25.363281 8.882812 25.664062 9.171875 26.027344 9.355469 C 26.195312 9.441406 26.382812 9.507812 26.566406 9.472656 C 26.75 9.441406 26.925781 9.285156 26.925781 9.097656 Z M 26.925781 9.097656 " fill-opacity="1" fill-rule="nonzero"/><path fill="#060606" d="M 24.171875 6.785156 C 23.511719 6.675781 22.800781 7.003906 22.460938 7.578125 C 22.433594 7.621094 22.410156 7.683594 22.445312 7.722656 C 22.472656 7.753906 22.519531 7.75 22.5625 7.757812 C 22.667969 7.78125 22.726562 7.890625 22.761719 7.992188 C 22.796875 8.097656 22.824219 8.210938 22.914062 8.273438 C 22.945312 8.296875 22.96875 8.324219 22.984375 8.359375 C 22.976562 8.195312 22.972656 8.027344 23.011719 7.867188 C 23.046875 7.707031 23.128906 7.550781 23.261719 7.449219 C 23.078125 7.480469 22.910156 7.585938 22.804688 7.742188 C 22.84375 7.59375 22.886719 7.445312 22.964844 7.3125 C 23.089844 7.109375 23.296875 6.972656 23.523438 6.894531 C 23.746094 6.816406 23.988281 6.796875 24.171875 6.785156 Z M 24.171875 6.785156 " fill-opacity="1" fill-rule="nonzero"/><path fill="#060606" d="M 24.652344 6.886719 C 24.945312 6.960938 25.199219 7.164062 25.355469 7.421875 C 25.515625 7.679688 25.578125 7.992188 25.554688 8.292969 C 25.550781 8.332031 25.546875 8.375 25.578125 8.402344 C 25.59375 8.417969 25.621094 8.421875 25.644531 8.425781 C 25.726562 8.4375 25.808594 8.449219 25.890625 8.460938 C 25.753906 8.402344 25.730469 8.226562 25.707031 8.085938 C 25.621094 7.605469 25.3125 7.164062 24.878906 6.945312 C 24.792969 6.902344 24.679688 6.875 24.652344 6.886719 Z M 24.652344 6.886719 " fill-opacity="1" fill-rule="nonzero"/><path fill="#060606" d="M 23.167969 8.417969 C 23.828125 8.238281 24.539062 8.234375 25.195312 8.324219 C 24.972656 8.300781 24.742188 8.316406 24.511719 8.328125 C 23.914062 8.371094 23.300781 8.414062 22.746094 8.605469 C 22.878906 8.542969 22.980469 8.472656 23.167969 8.417969 Z M 23.167969 8.417969 " fill-opacity="1" fill-rule="nonzero"/><path fill="#f67a45" d="M 17.757812 19.050781 C 17.933594 19.066406 18.109375 19 18.277344 18.945312 C 18.75 18.804688 19.261719 18.789062 19.746094 18.898438 C 19.375 18.839844 19.015625 19.019531 18.652344 19.09375 C 18.351562 19.15625 18.035156 19.144531 17.757812 19.050781 Z M 17.757812 19.050781 " fill-opacity="1" fill-rule="nonzero"/><path fill="#f67a45" d="M 15.988281 8.378906 C 16.171875 8.199219 16.449219 8.148438 16.707031 8.144531 C 16.886719 8.140625 17.066406 8.152344 17.242188 8.183594 C 16.945312 8.167969 16.652344 8.289062 16.394531 8.4375 C 16.328125 8.476562 16.261719 8.519531 16.1875 8.527344 C 16.113281 8.535156 16.027344 8.496094 15.988281 8.378906 Z M 15.988281 8.378906 " fill-opacity="1" fill-rule="nonzero"/><path fill="#f67a45" d="M 24.578125 12.542969 C 24.664062 12.851562 24.5625 13.183594 24.609375 13.5 C 24.628906 13.628906 24.671875 13.753906 24.734375 13.863281 C 24.65625 13.738281 24.648438 13.578125 24.660156 13.429688 C 24.671875 13.28125 24.707031 13.136719 24.714844 12.984375 C 24.71875 12.835938 24.695312 12.679688 24.578125 12.542969 Z M 24.578125 12.542969 " fill-opacity="1" fill-rule="nonzero"/><path fill="#f67a45" d="M 8.710938 23.515625 C 8.421875 23.988281 8.128906 24.476562 8.046875 25.027344 C 8.394531 24.332031 8.871094 23.699219 9.445312 23.175781 C 9.167969 23.265625 8.90625 23.414062 8.710938 23.515625 Z M 8.710938 23.515625 " fill-opacity="1" fill-rule="nonzero"/><g fill="#ffffff" fill-opacity="1"><g transform="translate(33.119928, 21.90305)"><g><path d="M 1.078125 0 L 1.078125 -15.4375 L 5.4375 -15.4375 L 5.4375 -9.171875 L 5.484375 -9.171875 L 13.375 -15.4375 L 19.015625 -15.4375 L 10.96875 -9.0625 L 19.125 0 L 13.734375 0 L 7.9375 -6.59375 L 5.4375 -4.625 L 5.4375 0 Z M 1.078125 0 "/></g></g></g><g fill="#ffffff" fill-opacity="1"><g transform="translate(52.243697, 21.90305)"><g><path d="M 1.078125 0 L 1.078125 -15.4375 L 12.96875 -15.4375 C 15.050781 -15.4375 16.648438 -14.976562 17.765625 -14.0625 C 18.878906 -13.15625 19.4375 -11.863281 19.4375 -10.1875 C 19.4375 -8.5625 18.875 -7.296875 17.75 -6.390625 C 16.632812 -5.492188 15.035156 -5.046875 12.953125 -5.046875 L 5.4375 -5.046875 L 5.4375 0 Z M 5.4375 -7.671875 L 11.625 -7.671875 C 12.738281 -7.671875 13.59375 -7.894531 14.1875 -8.34375 C 14.78125 -8.789062 15.078125 -9.429688 15.078125 -10.265625 C 15.078125 -11.066406 14.78125 -11.691406 14.1875 -12.140625 C 13.59375 -12.585938 12.738281 -12.8125 11.625 -12.8125 L 5.4375 -12.8125 Z M 5.4375 -7.671875 "/></g></g></g><path stroke-linecap="butt" transform="matrix(0.804911, 0, 0, 0.804911, 71.709531, 5.804832)" fill="none" stroke-linejoin="miter" d="M 14.580224 20.537808 C 11.79459 20.537808 9.382638 20.130154 7.344369 19.314847 C 5.301247 18.494686 3.724015 17.329961 2.612673 15.820671 C 1.496478 14.311382 0.943233 12.506057 0.943233 10.404699 C 0.943233 8.342165 1.462507 6.5514 2.501053 5.032404 C 3.544453 3.513408 5.024624 2.34383 6.946421 1.518817 C 8.873071 0.68895 11.139432 0.276443 13.745504 0.276443 C 15.68186 0.276443 17.458066 0.548212 19.069269 1.096604 C 20.675619 1.644995 22.034465 2.421479 23.136101 3.426054 C 24.237737 4.43063 25.019073 5.624473 25.470404 7.012437 L 20.559147 8.172309 C 20.166052 6.944495 19.365303 5.978743 18.161754 5.275055 C 16.958205 4.566514 15.531416 4.207391 13.876536 4.207391 C 12.347834 4.207391 11.022959 4.459748 9.901911 4.964462 C 8.780863 5.464323 7.907319 6.177717 7.290986 7.104644 C 6.669799 8.031572 6.364058 9.128354 6.364058 10.404699 C 6.378617 11.666485 6.728035 12.758415 7.407458 13.685342 C 8.091734 14.602563 9.052632 15.32081 10.290153 15.83523 C 11.532526 16.349651 12.998139 16.606861 14.68699 16.606861 C 16.66217 16.606861 18.341316 16.194354 19.714721 15.36934 C 21.088126 14.539474 21.966523 13.423279 22.345059 12.025608 L 27.353377 12.99136 C 26.974841 14.53462 26.198358 15.874054 25.023926 17.004808 C 23.844642 18.135563 22.369324 19.009106 20.588265 19.62544 C 18.812059 20.236921 16.807761 20.537808 14.580224 20.537808 Z M 14.580224 20.537808 " stroke="#f67a45" stroke-width="1.010962" stroke-opacity="1" stroke-miterlimit="4"/></svg>